<svg xmlns="http://www.w3.org/2000/svg" viewBox="0 0 150 150"><defs><style>.cls-1{fill:#cbcbcb;}.cls-2{fill:#fff;}</style></defs><title>noimage</title><g id="レイヤー_2" data-name="レイヤー 2"><g id="_1" data-name="1"><rect class="cls-1" width="150" height="150"/><rect class="cls-2" x="14.91" y="62.89" width="24.41" height="24.41"/><rect class="cls-1" x="17.1" y="65.24" width="20.02" height="20.01"/><path class="cls-2" d="M48.86,68.73a.18.18,0,0,1,.2-.19H50.3a.32.32,0,0,1,.33.19l6,10h.08v-10a.18.18,0,0,1,.2-.19h1.23a.18.18,0,0,1,.2.19V81.6a.18.18,0,0,1-.2.2H56.89a.33.33,0,0,1-.33-.2l-6-9.91h-.06V81.6a.18.18,0,0,1-.2.2H49.05a.18.18,0,0,1-.2-.2Z"/><path class="cls-2" d="M61.51,78.92a11.47,11.47,0,0,1-.35-3.75,11.39,11.39,0,0,1,.35-3.74,4.84,4.84,0,0,1,9,0,11.35,11.35,0,0,1,.35,3.74,11.42,11.42,0,0,1-.35,3.75,4.84,4.84,0,0,1-9,0Zm7.34-.49a11.28,11.28,0,0,0,.29-3.26,11.26,11.26,0,0,0-.29-3.26,3,3,0,0,0-5.64,0,11.34,11.34,0,0,0-.29,3.26,11.36,11.36,0,0,0,.29,3.26,3,3,0,0,0,5.64,0Z"/><path class="cls-2" d="M78.4,68.73a.18.18,0,0,1,.2-.19h1.35a.18.18,0,0,1,.2.19V81.6a.18.18,0,0,1-.2.2H78.6a.18.18,0,0,1-.2-.2Z"/><path class="cls-2" d="M83.42,68.73a.18.18,0,0,1,.19-.19h1.27a.3.3,0,0,1,.31.19l4,8.94h.06l3.88-8.94a.3.3,0,0,1,.31-.19h1.27a.18.18,0,0,1,.2.19V81.6a.18.18,0,0,1-.2.2H93.45a.18.18,0,0,1-.19-.2V72.38h-.06l-3.3,7.3a.34.34,0,0,1-.35.23h-.78a.35.35,0,0,1-.37-.23l-3.29-7.3H85V81.6a.18.18,0,0,1-.2.2H83.62a.18.18,0,0,1-.19-.2Z"/><path class="cls-2" d="M101.6,68.73c0-.12.1-.19.23-.19h1.27a.26.26,0,0,1,.26.19L107.9,81.6a.13.13,0,0,1-.13.2H106.4a.23.23,0,0,1-.25-.2l-1-2.89H99.76l-1,2.89a.26.26,0,0,1-.25.2H97.13a.13.13,0,0,1-.13-.2Zm3,8.39-2.09-6h0l-2.11,6Z"/><path class="cls-2" d="M109.55,75.17a11.93,11.93,0,0,1,.35-3.74,4.39,4.39,0,0,1,4.55-3.11A4.53,4.53,0,0,1,118.85,71a.18.18,0,0,1-.06.27l-1.17.57a.19.19,0,0,1-.27-.1,3,3,0,0,0-2.91-1.76,2.74,2.74,0,0,0-2.87,2,10.3,10.3,0,0,0-.27,3.26,10.32,10.32,0,0,0,.27,3.26,2.73,2.73,0,0,0,2.87,2,2.81,2.81,0,0,0,2.85-1.91,7.15,7.15,0,0,0,.25-2.09.1.1,0,0,0-.12-.12h-2.57a.18.18,0,0,1-.2-.2V75a.18.18,0,0,1,.2-.2h4.23a.18.18,0,0,1,.2.2v1a11.15,11.15,0,0,1-.33,2.92A4.43,4.43,0,0,1,114.45,82a4.39,4.39,0,0,1-4.55-3.1A12,12,0,0,1,109.55,75.17Z"/><path class="cls-2" d="M122.11,68.73a.18.18,0,0,1,.19-.19h8a.18.18,0,0,1,.2.19V70a.19.19,0,0,1-.2.2H124a.1.1,0,0,0-.12.11v3.9a.1.1,0,0,0,.12.12h5.37a.18.18,0,0,1,.2.2v1.23a.18.18,0,0,1-.2.19H124a.11.11,0,0,0-.12.12v4a.1.1,0,0,0,.12.12h6.32a.18.18,0,0,1,.2.2V81.6a.18.18,0,0,1-.2.2h-8a.18.18,0,0,1-.19-.2Z"/><path class="cls-2" d="M33.72,74.27a.85.85,0,0,0-1.2,0L26.9,79.89a.85.85,0,0,1-1.2,0L22.82,77a.85.85,0,0,0-1.2,0l-3.77,3.77a.86.86,0,0,0-.25.6V83.7a.85.85,0,0,0,.85.85H35.39a.85.85,0,0,0,.85-.85V77.14a.84.84,0,0,0-.25-.6Z"/><path class="cls-2" d="M21.47,70.88a2.59,2.59,0,0,1,2.37-2.58,2.59,2.59,0,1,0-1.77,4.47h.21A2.57,2.57,0,0,1,21.47,70.88Z"/></g></g></svg>